<?xml version="1.0" standalone="no"?>
<!DOCTYPE svg PUBLIC "-//W3C//DTD SVG 20010904//EN"
 "http://www.w3.org/TR/2001/REC-SVG-20010904/DTD/svg10.dtd">
<svg version="1.0" xmlns="http://www.w3.org/2000/svg"
 width="16.000000pt" height="16.000000pt" viewBox="0 0 16.000000 16.000000"
 preserveAspectRatio="xMidYMid meet">
<metadata>
Created by potrace 1.11, written by Peter Selinger 2001-2013
</metadata>
<g transform="translate(0.000000,16.000000) scale(0.001299,-0.001299)"
fill="#000000" stroke="none">
<path d="M1680 7840 l0 -4480 157 -117 c87 -65 162 -122 168 -126 5 -5 226
-171 490 -368 264 -198 489 -368 500 -377 12 -9 43 -33 70 -52 28 -19 52 -38
53 -42 2 -4 10 -8 17 -8 7 0 15 -3 17 -7 5 -13 96 -83 106 -83 5 0 12 -7 16
-15 3 -8 12 -15 20 -15 8 0 16 -4 18 -8 1 -5 30 -28 63 -53 33 -24 62 -47 63
-51 2 -5 9 -8 16 -8 6 0 18 -9 26 -20 8 -11 19 -20 25 -20 7 0 22 -11 35 -25
13 -14 29 -25 36 -25 6 0 14 -7 18 -15 3 -8 12 -15 20 -15 8 0 16 -4 18 -8 2
-5 102 -82 223 -173 121 -90 222 -167 223 -171 2 -5 9 -8 16 -8 6 0 18 -9 26
-20 8 -11 18 -20 22 -20 7 0 132 -93 148 -110 3 -3 28 -21 55 -40 28 -19 52
-38 53 -42 2 -4 10 -8 17 -8 7 0 15 -4 17 -8 2 -5 30 -28 63 -53 33 -24 66
-50 75 -56 8 -7 236 -178 505 -379 270 -202 492 -370 495 -373 3 -3 28 -22 55
-41 28 -19 52 -38 53 -42 2 -4 10 -8 17 -8 7 0 15 -4 17 -8 2 -5 30 -28 63
-53 33 -24 62 -46 65 -49 3 -3 76 -58 163 -123 l158 -117 89 67 c184 140 502
378 517 388 9 6 24 17 33 25 25 22 428 323 448 335 9 6 19 12 22 16 6 7 155
119 183 139 32 22 223 165 264 198 11 9 31 24 43 32 12 8 103 77 203 153 100
76 193 146 207 155 14 9 96 71 183 137 88 66 166 125 175 130 10 6 19 12 22
16 3 3 23 18 45 34 22 16 63 48 91 70 28 22 62 47 74 55 13 8 38 27 55 42 18
16 37 28 43 28 6 0 12 4 14 8 3 8 417 323 455 347 9 6 23 16 32 23 15 13 177
135 235 177 15 11 36 27 46 35 10 8 28 22 40 30 28 19 111 82 126 95 6 6 21
17 34 25 12 8 82 61 156 117 74 57 139 103 144 103 4 0 10 3 12 8 5 11 137
112 147 112 5 0 11 3 13 8 5 11 137 112 147 112 5 0 11 4 13 8 2 4 40 36 86
70 l82 63 0 4481 c0 4267 -1 4480 -17 4466 -10 -8 -54 -41 -98 -73 -44 -33
-94 -71 -111 -85 -17 -14 -41 -32 -54 -40 -12 -8 -55 -40 -95 -70 -39 -30 -84
-64 -99 -75 -16 -11 -43 -31 -60 -45 -18 -14 -45 -34 -60 -45 -15 -11 -57 -42
-93 -70 -36 -27 -72 -54 -81 -60 -9 -5 -25 -18 -36 -28 -11 -10 -44 -34 -73
-54 -29 -20 -53 -40 -53 -45 0 -4 -5 -8 -11 -8 -6 0 -17 -6 -24 -12 -19 -18
-263 -201 -283 -213 -9 -5 -19 -12 -22 -15 -3 -3 -32 -25 -65 -50 -33 -25 -64
-49 -70 -53 -5 -5 -154 -116 -330 -248 -176 -132 -330 -247 -342 -257 -58 -45
-277 -208 -291 -217 -10 -5 -19 -12 -22 -15 -8 -10 -280 -214 -298 -225 -9 -5
-19 -13 -22 -16 -3 -3 -106 -81 -230 -174 -124 -92 -226 -172 -228 -176 -2 -5
-7 -9 -12 -9 -4 0 -147 -105 -317 -232 -171 -128 -322 -242 -337 -253 -16 -11
-43 -31 -60 -45 -18 -14 -45 -34 -60 -45 -172 -128 -492 -370 -496 -375 -18
-25 -76 2 -141 65 -9 8 -21 15 -27 15 -7 0 -12 4 -12 8 0 4 -31 30 -70 57 -38
28 -70 53 -70 58 0 4 -7 7 -15 7 -9 0 -18 7 -21 15 -4 8 -10 15 -15 15 -4 0
-67 45 -139 100 -72 55 -134 100 -138 100 -4 0 -14 9 -22 20 -8 11 -18 20 -22
20 -9 0 -262 192 -266 202 -2 4 -10 8 -18 8 -8 0 -17 7 -20 15 -4 8 -10 15
-14 15 -7 0 -229 163 -290 213 -8 7 -37 28 -65 47 -27 19 -54 41 -58 48 -4 6
-14 12 -22 12 -7 0 -15 4 -17 9 -1 4 -104 84 -228 176 -124 93 -226 172 -228
177 -2 4 -7 8 -12 8 -6 0 -249 179 -330 243 -9 7 -42 32 -75 56 -33 25 -61 48
-63 53 -2 4 -8 8 -13 8 -5 0 -17 7 -26 15 -10 8 -112 85 -228 171 -115 87
-211 161 -213 166 -2 4 -10 8 -18 8 -8 0 -17 7 -20 15 -4 8 -11 15 -16 15 -10
0 -101 70 -106 83 -2 4 -10 7 -17 7 -7 0 -15 4 -17 8 -1 4 -25 23 -53 42 -27
19 -52 38 -55 41 -3 3 -216 164 -475 357 -468 351 -504 378 -528 397 -6 6 -83
63 -169 128 l-158 117 0 -4480z"/>
</g>
</svg>
