<?xml version="1.0" encoding="UTF-8" standalone="no"?><!DOCTYPE svg PUBLIC "-//W3C//DTD SVG 1.1//EN" "http://www.w3.org/Graphics/SVG/1.1/DTD/svg11.dtd"><svg width="100%" height="100%" viewBox="0 0 56 109" version="1.1" xmlns="http://www.w3.org/2000/svg" xmlns:xlink="http://www.w3.org/1999/xlink" xml:space="preserve" xmlns:serif="http://www.serif.com/" style="fill-rule:evenodd;clip-rule:evenodd;stroke-linejoin:round;stroke-miterlimit:1.5;"><g><path d="M27.606,20.085l26.78,-20.085l0,13.39l-26.78,20.085l-13.39,-10.043l0,13.39l13.39,10.043l13.39,-10.043l0,13.39l-13.39,10.043l-13.39,-10.043l0,13.39l-13.39,-10.042l0,-53.56l26.78,20.085Z" style="fill:#fff;"/><path d="M27.606,73.645l-13.39,-10.043l0,-13.39l13.39,10.043l13.39,-10.043l0,-13.39l-13.39,10.043l-13.39,-10.043l0,-13.39l13.39,10.043l26.78,-20.085l0,40.17l-26.78,20.085Z" style="fill:#00c2ff;"/><g><path d="M1.243,78.676l15.748,0l0,16.18l8.783,0l0,1.814l-10.85,0l0,-16.176l-2.979,0l0,-0.003l-8.635,0l0,5.985l7.017,0l0,1.789l-7.017,0l0,8.405l-2.067,0l0,-17.994Z" style="fill:url(#_Linear1);"/><path d="M28.579,78.676l15.799,0l3.938,6.965l3.988,-6.965l2.221,0l-5.099,8.758l5.427,9.236l-2.398,0l-4.316,-7.444l-4.316,7.444l-2.272,0l5.452,-9.337l-3.968,-6.839l-4.029,0l0,-0.003l-8.385,0l0,5.96l7.193,0l0,1.788l-7.193,0l0,6.617l8.935,0l0,1.814l-10.977,0l0,-17.994Z" style="fill:url(#_Linear2);"/></g><g><path d="M24.084,104.376l0.791,0.2c-0.166,0.65 -0.464,1.146 -0.895,1.487c-0.431,0.341 -0.958,0.512 -1.581,0.512c-0.645,0 -1.169,-0.131 -1.573,-0.394c-0.404,-0.262 -0.711,-0.642 -0.922,-1.14c-0.211,-0.498 -0.316,-1.032 -0.316,-1.604c0,-0.622 0.119,-1.166 0.357,-1.629c0.238,-0.464 0.576,-0.816 1.016,-1.057c0.439,-0.241 0.922,-0.361 1.45,-0.361c0.598,0 1.102,0.152 1.51,0.457c0.408,0.304 0.692,0.733 0.852,1.285l-0.779,0.184c-0.139,-0.436 -0.34,-0.753 -0.604,-0.951c-0.264,-0.199 -0.595,-0.298 -0.995,-0.298c-0.46,0 -0.844,0.11 -1.153,0.331c-0.309,0.22 -0.525,0.516 -0.651,0.887c-0.125,0.371 -0.187,0.754 -0.187,1.148c0,0.509 0.074,0.953 0.222,1.332c0.148,0.38 0.379,0.663 0.692,0.851c0.312,0.188 0.651,0.282 1.016,0.282c0.443,0 0.818,-0.128 1.126,-0.384c0.307,-0.256 0.515,-0.635 0.624,-1.138Z" style="fill:#fff;fill-opacity:0.2;fill-rule:nonzero;"/><path d="M25.826,106.473l0,-5.981l1.191,0l1.416,4.235c0.131,0.394 0.226,0.689 0.286,0.885c0.068,-0.218 0.174,-0.537 0.318,-0.959l1.432,-4.161l1.065,0l0,5.981l-0.763,0l0,-5.006l-1.738,5.006l-0.714,0l-1.73,-5.092l0,5.092l-0.763,0Z" style="fill:#fff;fill-opacity:0.2;fill-rule:nonzero;"/><path d="M32.541,104.551l0.747,-0.065c0.035,0.299 0.118,0.545 0.247,0.736c0.129,0.192 0.33,0.347 0.602,0.466c0.272,0.118 0.578,0.177 0.918,0.177c0.302,0 0.568,-0.045 0.799,-0.135c0.231,-0.089 0.404,-0.212 0.516,-0.369c0.113,-0.156 0.17,-0.327 0.17,-0.512c0,-0.188 -0.055,-0.351 -0.163,-0.492c-0.109,-0.14 -0.289,-0.257 -0.539,-0.352c-0.161,-0.063 -0.515,-0.16 -1.065,-0.292c-0.549,-0.132 -0.934,-0.256 -1.154,-0.373c-0.286,-0.15 -0.499,-0.336 -0.639,-0.557c-0.14,-0.222 -0.21,-0.47 -0.21,-0.745c0,-0.302 0.086,-0.584 0.257,-0.847c0.171,-0.262 0.422,-0.461 0.751,-0.597c0.329,-0.136 0.695,-0.204 1.097,-0.204c0.443,0 0.834,0.071 1.173,0.214c0.339,0.143 0.599,0.353 0.781,0.63c0.183,0.278 0.281,0.592 0.294,0.943l-0.759,0.057c-0.041,-0.378 -0.179,-0.664 -0.414,-0.857c-0.235,-0.193 -0.583,-0.29 -1.042,-0.29c-0.479,0 -0.828,0.088 -1.047,0.264c-0.219,0.175 -0.328,0.387 -0.328,0.634c0,0.215 0.077,0.392 0.232,0.53c0.153,0.139 0.55,0.281 1.194,0.427c0.643,0.145 1.084,0.272 1.324,0.381c0.348,0.161 0.605,0.364 0.771,0.61c0.166,0.246 0.249,0.53 0.249,0.851c0,0.318 -0.091,0.618 -0.274,0.899c-0.182,0.282 -0.444,0.501 -0.785,0.657c-0.341,0.157 -0.726,0.235 -1.153,0.235c-0.541,0 -0.994,-0.079 -1.36,-0.237c-0.366,-0.157 -0.653,-0.395 -0.861,-0.712c-0.208,-0.317 -0.318,-0.675 -0.329,-1.075Z" style="fill:#fff;fill-opacity:0.2;fill-rule:nonzero;"/></g><path d="M0.829,103.243l15.536,0" style="fill:none;stroke:#fff;stroke-opacity:0.2;stroke-width:1.65px;"/><path d="M39.361,103.243l15.028,0" style="fill:none;stroke:#fff;stroke-opacity:0.2;stroke-width:1.65px;"/><path d="M54.389,0l-26.781,20.085l0,53.56l26.781,-20.085l0,-53.56Z" style="fill-opacity:0.33;"/></g><defs><linearGradient id="_Linear1" x1="0" y1="0" x2="1" y2="0" gradientUnits="userSpaceOnUse" gradientTransform="matrix(51.5431,16.1793,-16.1793,51.5432,3.31003,80.4907)"><stop offset="0" style="stop-color:#fff;stop-opacity:1"/><stop offset="0.45" style="stop-color:#b5edff;stop-opacity:1"/><stop offset="1" style="stop-color:#00c2ff;stop-opacity:1"/></linearGradient><linearGradient id="_Linear2" x1="0" y1="0" x2="1" y2="0" gradientUnits="userSpaceOnUse" gradientTransform="matrix(51.5431,16.1793,-16.1793,51.5432,3.31003,80.4907)"><stop offset="0" style="stop-color:#fff;stop-opacity:1"/><stop offset="0.45" style="stop-color:#b5edff;stop-opacity:1"/><stop offset="1" style="stop-color:#00c2ff;stop-opacity:1"/></linearGradient></defs></svg>