<?xml version="1.0" encoding="UTF-8" standalone="no"?><!DOCTYPE svg PUBLIC "-//W3C//DTD SVG 1.1//EN" "http://www.w3.org/Graphics/SVG/1.1/DTD/svg11.dtd"><svg width="100%" height="100%" viewBox="0 0 38 38" version="1.1" xmlns="http://www.w3.org/2000/svg" xmlns:xlink="http://www.w3.org/1999/xlink" xml:space="preserve" style="fill-rule:evenodd;clip-rule:evenodd;stroke-linejoin:round;stroke-miterlimit:1.41421;"><rect id="Artboard4" x="0" y="0" width="37.613" height="37.613" style="fill:none;"/><path d="M15.432,6.406c-0.004,-0.196 0.009,-0.393 0.039,-0.587c0.05,-0.329 0.149,-0.65 0.294,-0.95c0.318,-0.66 0.853,-1.208 1.505,-1.542c0.321,-0.164 0.667,-0.277 1.023,-0.331c0.142,-0.022 0.284,-0.032 0.427,-0.038c0.087,-0.001 0.086,-0.001 0.174,0c0.142,0.006 0.284,0.016 0.426,0.038c0.356,0.054 0.703,0.167 1.023,0.331c0.652,0.334 1.187,0.882 1.505,1.542c0.145,0.3 0.244,0.621 0.295,0.95c0.029,0.194 0.042,0.391 0.038,0.587c0.704,0.191 1.392,0.443 2.054,0.752c1.263,0.59 2.427,1.387 3.435,2.349c1.045,0.996 1.921,2.167 2.579,3.452c0.552,1.076 0.949,2.229 1.177,3.417c0.267,1.39 0.302,2.825 0.105,4.226c-0.183,1.308 -0.57,2.585 -1.143,3.774c-0.672,1.394 -1.598,2.663 -2.718,3.73c-1.159,1.106 -2.525,1.993 -4.008,2.6c-1.538,0.628 -3.194,0.95 -4.855,0.95c-1.661,0 -3.318,-0.322 -4.856,-0.95c-1.483,-0.607 -2.848,-1.494 -4.008,-2.6c-1.12,-1.067 -2.046,-2.336 -2.718,-3.73c-0.573,-1.189 -0.96,-2.466 -1.143,-3.774c-0.197,-1.401 -0.161,-2.836 0.105,-4.226c0.228,-1.188 0.626,-2.341 1.177,-3.417c0.658,-1.285 1.534,-2.456 2.579,-3.452c1.009,-0.962 2.173,-1.759 3.435,-2.349c0.662,-0.309 1.35,-0.561 2.054,-0.752Zm6.648,0.75c-0.055,0.22 -0.133,0.435 -0.232,0.639c-0.176,0.366 -0.419,0.699 -0.713,0.98c-0.295,0.281 -0.64,0.508 -1.015,0.667c-0.414,0.175 -0.863,0.265 -1.313,0.265c-0.45,0 -0.899,-0.09 -1.314,-0.265c-0.375,-0.159 -0.72,-0.386 -1.015,-0.667c-0.294,-0.281 -0.537,-0.614 -0.713,-0.98c-0.099,-0.204 -0.176,-0.419 -0.232,-0.639c-0.629,0.177 -1.244,0.405 -1.837,0.682c-1.189,0.555 -2.286,1.306 -3.235,2.212c-0.984,0.938 -1.81,2.041 -2.43,3.251c-0.519,1.012 -0.893,2.098 -1.107,3.216c-0.251,1.31 -0.284,2.661 -0.099,3.981c0.172,1.231 0.536,2.433 1.076,3.552c0.633,1.313 1.505,2.508 2.56,3.513c1.092,1.042 2.377,1.877 3.774,2.449c1.448,0.591 3.008,0.894 4.572,0.894c1.563,0 3.123,-0.303 4.571,-0.894c1.397,-0.572 2.683,-1.407 3.775,-2.449c1.055,-1.005 1.927,-2.2 2.559,-3.513c0.54,-1.119 0.904,-2.321 1.077,-3.552c0.185,-1.32 0.152,-2.671 -0.099,-3.981c-0.215,-1.118 -0.589,-2.204 -1.108,-3.216c-0.62,-1.21 -1.445,-2.313 -2.429,-3.251c-0.95,-0.906 -2.046,-1.657 -3.236,-2.212c-0.592,-0.277 -1.207,-0.505 -1.837,-0.682Zm-3.341,-3.448c-0.112,0.004 -0.222,0.013 -0.332,0.029c-0.277,0.043 -0.546,0.13 -0.795,0.257c-0.488,0.251 -0.893,0.655 -1.143,1.144c-0.118,0.229 -0.201,0.476 -0.246,0.729c-0.051,0.285 -0.055,0.579 -0.011,0.865c0.039,0.255 0.116,0.505 0.228,0.737c0.138,0.285 0.327,0.545 0.556,0.763c0.229,0.218 0.498,0.395 0.79,0.519c0.322,0.136 0.671,0.206 1.021,0.206c0.35,0 0.698,-0.07 1.021,-0.206c0.291,-0.124 0.56,-0.301 0.789,-0.519c0.229,-0.218 0.418,-0.478 0.556,-0.763c0.112,-0.232 0.189,-0.482 0.228,-0.737c0.044,-0.286 0.041,-0.58 -0.01,-0.865c-0.046,-0.253 -0.129,-0.5 -0.246,-0.729c-0.251,-0.489 -0.655,-0.893 -1.144,-1.144c-0.249,-0.127 -0.518,-0.214 -0.794,-0.257c-0.111,-0.016 -0.221,-0.025 -0.332,-0.029c-0.069,-0.001 -0.068,-0.001 -0.136,0Z" style="fill:#fff;"/></svg>